<svg width="28" height="28" viewBox="0 0 28 28" fill="none" xmlns="http://www.w3.org/2000/svg">
<path d="M9.8 14L15.4 19.6L15.4 8.4L9.8 14ZM3.20274e-06 14C3.28739e-06 12.0633 0.367736 10.2433 1.1032 8.54C1.83774 6.83667 2.835 5.355 4.095 4.095C5.355 2.835 6.83667 1.83773 8.54 1.1032C10.2433 0.367733 12.0633 -6.96614e-07 14 -6.11959e-07C15.9367 -5.27305e-07 17.7567 0.367733 19.46 1.1032C21.1633 1.83773 22.645 2.835 23.905 4.095C25.165 5.355 26.1627 6.83667 26.8982 8.54C27.6327 10.2433 28 12.0633 28 14C28 15.9367 27.6327 17.7567 26.8982 19.46C26.1627 21.1633 25.165 22.645 23.905 23.905C22.645 25.165 21.1633 26.1623 19.46 26.8968C17.7567 27.6323 15.9367 28 14 28C12.0633 28 10.2433 27.6323 8.54 26.8968C6.83667 26.1623 5.355 25.165 4.095 23.905C2.835 22.645 1.83774 21.1633 1.1032 19.46C0.367736 17.7567 3.11808e-06 15.9367 3.20274e-06 14ZM2.8 14C2.8 17.1267 3.885 19.775 6.055 21.945C8.225 24.115 10.8733 25.2 14 25.2C17.1267 25.2 19.775 24.115 21.945 21.945C24.115 19.775 25.2 17.1267 25.2 14C25.2 10.8733 24.115 8.225 21.945 6.055C19.775 3.885 17.1267 2.8 14 2.8C10.8733 2.8 8.225 3.885 6.055 6.055C3.885 8.225 2.8 10.8733 2.8 14Z" fill="white"/>
</svg>