<svg width="28" height="28" viewBox="0 0 28 28" fill="none" xmlns="http://www.w3.org/2000/svg">
<path d="M18.2 14L12.6 8.4L12.6 19.6L18.2 14ZM28 14C28 15.9367 27.6323 17.7567 26.8968 19.46C26.1623 21.1633 25.165 22.645 23.905 23.905C22.645 25.165 21.1633 26.1623 19.46 26.8968C17.7567 27.6323 15.9367 28 14 28C12.0633 28 10.2433 27.6323 8.54 26.8968C6.83667 26.1623 5.355 25.165 4.095 23.905C2.835 22.645 1.83727 21.1633 1.1018 19.46C0.367267 17.7567 1.43854e-07 15.9367 1.66948e-07 14C1.90043e-07 12.0633 0.367267 10.2433 1.1018 8.54C1.83727 6.83667 2.835 5.355 4.095 4.095C5.355 2.835 6.83667 1.83773 8.54 1.1032C10.2433 0.367731 12.0633 -1.76349e-06 14 -1.7404e-06C15.9367 -1.71731e-06 17.7567 0.367731 19.46 1.1032C21.1633 1.83773 22.645 2.835 23.905 4.095C25.165 5.355 26.1623 6.83667 26.8968 8.54C27.6323 10.2433 28 12.0633 28 14ZM25.2 14C25.2 10.8733 24.115 8.225 21.945 6.055C19.775 3.885 17.1267 2.8 14 2.8C10.8733 2.8 8.225 3.885 6.055 6.055C3.885 8.225 2.8 10.8733 2.8 14C2.8 17.1267 3.885 19.775 6.055 21.945C8.225 24.115 10.8733 25.2 14 25.2C17.1267 25.2 19.775 24.115 21.945 21.945C24.115 19.775 25.2 17.1267 25.2 14Z" fill="white"/>
</svg>