<svg id="Layer_1" data-name="Layer 1" xmlns="http://www.w3.org/2000/svg" viewBox="0 0 498.66 471.59"><defs><style>.cls-1{fill:#e9b531;}</style></defs><path class="cls-1" d="M404.62,14.05s-25.29,21.19-41,26c-8.94,2.76-21.3-3.39-42.48,4.45-18.85,7-47.17,19.58-67.36,29.59-10.58,5.24-23.72,8.71-34.7,17.79C183,121.77,163,114.54,158.57,121.67c-7.24,11.66,8.66,30.07,30.64,27,7.2-1,15-3,28.66-10,21.54-10.94,30-8.45,34-4.24,6.65,7,.25,14.41-6.13,21.27-17,18.4-49.05,55.82-72.8,83.69,29.43-15.3,83.26-41.28,113.2-55.73,9.31-4.49,17.35-8.37,18.46-8.94A34.65,34.65,0,0,1,321,170.54,30.87,30.87,0,0,1,350.67,193a30.45,30.45,0,0,1,1.11,7.29A33.93,33.93,0,0,1,366.29,197,32.07,32.07,0,0,1,397,220.1c3.24,11.3.52,27.22-16.77,38a29.72,29.72,0,0,1,9.7,12.21c22-20.73,38.65-37.8,55.12-63.54,15.93-24.89,19.89-37.24,26.47-59.34,2.61-8.79,27.75-36.2,27.75-36.2Z" transform="translate(-0.61 -14.05)"/><path class="cls-1" d="M352.75,269.23c-4.81,2.54-119,65.11-119.55,65.41a3.81,3.81,0,0,1-5.2-1.34l-.08-.15a3.79,3.79,0,0,1,1.42-5l143.51-81.72c24.83-15.47,4.79-44.56-16.55-32.88-4.93,2.7-139.19,71-139.19,71a3.81,3.81,0,0,1-5.26-1.09l-.18-.3a3.81,3.81,0,0,1,1.27-5l112.92-58.79c25-15.17,6.71-43.75-14.77-32.33-4.4,2.34-101.79,48.71-138.1,68.07-8.13,4.38-16.79,8.62-21.8.55-3-4.86-3.29-13.51,12.49-31.32,10-11.28,13.89-18.22,16.62-24.83,8.35-20.19-5.25-39.92-18.16-35.92-7.88,2.44-6,23.32-43.4,50.29-11.39,8.2-17.95,19.86-25.58,28.64-14.55,16.75-33.61,40.61-44.94,56.83-12.73,18.23-9.95,31.55-14.8,39.38C24.91,352.46.61,362.89.61,362.89L67.53,485.63s32.37-17.13,41.39-17.44c22.7-.77,35.45-1.47,63.12-10.47,33.08-10.74,55.14-24.55,86.4-44.4,27.89-17.71,79.07-52.68,79.07-52.68,18.31-14,4.84-35.67-12.47-26.46-12.17,6.47-64.11,39.51-83.92,51a3.79,3.79,0,0,1-5.19-1.34,1,1,0,0,1-.08-.14,3.79,3.79,0,0,1,1.42-5.05L371,298C388.43,284.37,374.26,257.85,352.75,269.23Z" transform="translate(-0.61 -14.05)"/></svg>