<svg id="Layer_1" data-name="Layer 1" xmlns="http://www.w3.org/2000/svg" viewBox="0 0 460.85 500"><defs><style>.cls-1{fill:#e9b531;}</style></defs><path class="cls-1" d="M375,173.4a59,59,0,0,0,0,118h0v-118Z" transform="translate(-33.06)"/><path class="cls-1" d="M266.47,144.07h0A139.84,139.84,0,0,1,373.2,92.48,139.84,139.84,0,0,0,266.47,144.07Z" transform="translate(-33.06)"/><path class="cls-1" d="M236.61,212.19h0a139.46,139.46,0,0,1,9.47-34.32h0A139,139,0,0,0,236.61,212.19Z" transform="translate(-33.06)"/><path class="cls-1" d="M287.3,341.34a143,143,0,0,1-10.8-9.63Q281.66,336.8,287.3,341.34Z" transform="translate(-33.06)"/><path class="cls-1" d="M102.13,71.49a2.41,2.41,0,0,0,2.41-2.42V2.89a1.19,1.19,0,0,0-2-.85L35.1,69.45a1.2,1.2,0,0,0,.84,2Z" transform="translate(-33.06)"/><path class="cls-1" d="M91.44,246a7.82,7.82,0,0,1-7.83-7.83V220a7.83,7.83,0,0,1,7.83-7.84H236.61a139,139,0,0,1,9.47-34.32H91.45A7.84,7.84,0,0,1,83.61,170V151.91a7.84,7.84,0,0,1,7.84-7.84H263.23a7,7,0,0,0,5.32-2.49A139.8,139.8,0,0,1,373.2,92.48c.59,0,1.18-.09,1.77-.09h0V3.88A3.88,3.88,0,0,0,371.1,0H131a1.94,1.94,0,0,0-1.94,1.94v82A12.12,12.12,0,0,1,117,96H35A1.94,1.94,0,0,0,33.06,98V456.48a13.29,13.29,0,0,0,13.29,13.29H323.66a7.24,7.24,0,0,0,7.23-7.24l0-73.07a7.23,7.23,0,0,0-7.24-7.23H91.45a7.84,7.84,0,0,1-7.84-7.84V356.27a7.84,7.84,0,0,1,7.84-7.84H297.19c-2.43-1.64-4.86-3.28-7.19-5.07-.89-.68-1.82-1.31-2.7-2q-5.64-4.54-10.8-9.63c-.15-.15-.31-.27-.46-.42-3.24-3.23-6.29-6.61-9.17-10.09-1.87-2.27-3.54-4.67-5.26-7l0-.05H91.45a7.84,7.84,0,0,1-7.84-7.84V288.15a7.84,7.84,0,0,1,7.84-7.84H243.63c-.52-1.45-1.11-2.87-1.59-4.33-.24-.74-.55-1.45-.79-2.2-1-3.25-1.78-6.57-2.55-9.9-.28-1.2-.65-2.37-.89-3.58-.63-3.1-1-6.26-1.44-9.41-.2-1.48-.51-2.93-.66-4.43,0-.15,0-.32,0-.48Z" transform="translate(-33.06)"/><path class="cls-1" d="M276.5,331.71a140.91,140.91,0,0,1-9.63-10.51c2.88,3.48,5.93,6.86,9.17,10.09C276.19,331.44,276.35,331.56,276.5,331.71Z" transform="translate(-33.06)"/><path class="cls-1" d="M235.71,246.46c0-.15,0-.32,0-.48h0C235.7,246.14,235.69,246.31,235.71,246.46Z" transform="translate(-33.06)"/><path class="cls-1" d="M493.9,232.37A118.86,118.86,0,1,0,336.43,344.83a22.65,22.65,0,0,1,15.47,21.35L352,476.91a23.1,23.1,0,0,0,46.2,0l-.06-110.7a22.61,22.61,0,0,1,15.42-21.35A119.09,119.09,0,0,0,493.9,232.37ZM375,309.6a77.22,77.22,0,1,1,77.22-77.23A77.26,77.26,0,0,1,375,309.6Z" transform="translate(-33.06)"/></svg>